<svg width="12" height="15" viewBox="0 0 12 15" fill="none" xmlns="http://www.w3.org/2000/svg">
<path d="M2.004 0C1.47267 0.000529479 0.963251 0.211835 0.587543 0.587543C0.211834 0.963251 0.000529479 1.47267 0 2.004V12.996C0 14.101 0.899 15 2.004 15H9.996C10.5273 14.9992 11.0365 14.7878 11.4122 14.4122C11.7878 14.0365 11.9992 13.5273 12 12.996V4.521C12 4.499 11.99 4.479 11.986 4.457C11.9742 4.3485 11.9275 4.24675 11.853 4.167L7.853 0.168C7.839 0.154 7.819 0.153 7.803 0.141C7.71005 0.0513197 7.58616 0.000833447 7.457 0H2.004ZM2.004 1H7V3.031C7 4.128 7.891 5.021 8.988 5.021H11V12.996C11 13.55 10.55 14 9.996 14H2.004C1.45 14 1 13.55 1 12.996V2.004C1 1.45 1.45 1 2.004 1ZM8 1.744L10.29 4.021H8.988C8.72578 4.02047 8.47449 3.91593 8.28926 3.73033C8.10403 3.54473 8 3.29322 8 3.031V1.744Z" fill="white"/>
</svg>
