<svg width="37" height="35" viewBox="0 0 37 35" fill="none" xmlns="http://www.w3.org/2000/svg">
<ellipse cx="18.5" cy="17.5" rx="18.5" ry="17.5" fill="#E4EFE5"/>
<path d="M15.978 13.202L18.0182 11.508V18.5714C18.0182 18.7668 18.112 18.9541 18.2791 19.0923C18.4462 19.2304 18.6728 19.308 18.9091 19.308C19.1454 19.308 19.372 19.2304 19.5391 19.0923C19.7061 18.9541 19.8 18.7668 19.8 18.5714V11.508L21.8402 13.202C21.923 13.271 22.0215 13.3258 22.1301 13.3632C22.2387 13.4006 22.3551 13.4199 22.4727 13.4199C22.5903 13.4199 22.7068 13.4006 22.8153 13.3632C22.9239 13.3258 23.0224 13.271 23.1053 13.202C23.1888 13.1335 23.2551 13.0521 23.3003 12.9623C23.3455 12.8726 23.3688 12.7763 23.3688 12.6791C23.3688 12.5818 23.3455 12.4856 23.3003 12.3958C23.2551 12.306 23.1888 12.2246 23.1053 12.1561L19.5416 9.20993C19.4569 9.14287 19.357 9.09031 19.2476 9.05525C19.0307 8.98158 18.7874 8.98158 18.5705 9.05525C18.4612 9.09031 18.3613 9.14287 18.2765 9.20993L14.7129 12.1561C14.6298 12.2248 14.5639 12.3063 14.519 12.396C14.474 12.4858 14.4509 12.5819 14.4509 12.6791C14.4509 12.7762 14.474 12.8724 14.519 12.9621C14.5639 13.0518 14.6298 13.1333 14.7129 13.202C14.796 13.2707 14.8946 13.3252 15.0031 13.3623C15.1117 13.3995 15.228 13.4186 15.3455 13.4186C15.4629 13.4186 15.5793 13.3995 15.6878 13.3623C15.7963 13.3252 15.8949 13.2707 15.978 13.202ZM26.9273 16.3618C26.691 16.3618 26.4644 16.4394 26.2973 16.5775C26.1302 16.7157 26.0364 16.903 26.0364 17.0983V21.5176C26.0364 21.713 25.9425 21.9003 25.7754 22.0384C25.6083 22.1766 25.3817 22.2542 25.1455 22.2542H12.6727C12.4364 22.2542 12.2098 22.1766 12.0428 22.0384C11.8757 21.9003 11.7818 21.713 11.7818 21.5176V17.0983C11.7818 16.903 11.688 16.7157 11.5209 16.5775C11.3538 16.4394 11.1272 16.3618 10.8909 16.3618C10.6546 16.3618 10.428 16.4394 10.2609 16.5775C10.0939 16.7157 10 16.903 10 17.0983V21.5176C10 22.1037 10.2816 22.6657 10.7828 23.0801C11.2841 23.4945 11.9639 23.7273 12.6727 23.7273H25.1455C25.8543 23.7273 26.5341 23.4945 27.0354 23.0801C27.5366 22.6657 27.8182 22.1037 27.8182 21.5176V17.0983C27.8182 16.903 27.7243 16.7157 27.5572 16.5775C27.3902 16.4394 27.1636 16.3618 26.9273 16.3618Z" fill="#09A10E"/>
</svg>
